<mxfile host="app.diagrams.net" modified="2020-11-14T18:21:17.218Z" agent="5.0 (Windows NT 10.0; Win64; x64) AppleWebKit/537.36 (KHTML, like Gecko) Chrome/86.0.4240.193 Safari/537.36" etag="GMjTn-ohvfwBib6Dj1KC" version="13.9.8" type="github">
  <diagram id="UAt6TYiZA28QQcXCpw7w" name="Page-1">
    <mxGraphModel dx="2229" dy="2023" grid="1" gridSize="10" guides="1" tooltips="1" connect="1" arrows="1" fold="1" page="1" pageScale="1" pageWidth="980" pageHeight="1390" math="0" shadow="0">
      <root>
        <mxCell id="0" />
        <mxCell id="1" parent="0" />
        <mxCell id="UGoLlDs5Vt5mTQ_6u8co-1" value="&lt;font style=&quot;font-size: 17px&quot; face=&quot;Times New Roman&quot;&gt;&lt;b style=&quot;line-height: 190%&quot;&gt;Administrator&lt;/b&gt;&lt;/font&gt;" style="shape=umlActor;verticalLabelPosition=bottom;verticalAlign=top;html=1;outlineConnect=0;strokeWidth=7;" vertex="1" parent="1">
          <mxGeometry x="-880" y="-970" width="90" height="190" as="geometry" />
        </mxCell>
        <mxCell id="UGoLlDs5Vt5mTQ_6u8co-3" value="&lt;h2&gt;Employee&lt;/h2&gt;" style="rounded=0;whiteSpace=wrap;html=1;strokeWidth=7;" vertex="1" parent="1">
          <mxGeometry x="-580" y="-1240" width="120" height="60" as="geometry" />
        </mxCell>
        <mxCell id="UGoLlDs5Vt5mTQ_6u8co-4" value="&lt;h2&gt;Finance&lt;/h2&gt;" style="rounded=0;whiteSpace=wrap;html=1;strokeWidth=7;" vertex="1" parent="1">
          <mxGeometry x="-580" y="-990" width="120" height="60" as="geometry" />
        </mxCell>
        <mxCell id="UGoLlDs5Vt5mTQ_6u8co-5" value="&lt;h2&gt;Attendance&lt;/h2&gt;" style="rounded=0;whiteSpace=wrap;html=1;strokeWidth=7;" vertex="1" parent="1">
          <mxGeometry x="-560" y="-660" width="120" height="60" as="geometry" />
        </mxCell>
        <mxCell id="UGoLlDs5Vt5mTQ_6u8co-6" value="&lt;h2&gt;Leave&lt;/h2&gt;" style="rounded=0;whiteSpace=wrap;html=1;strokeWidth=7;" vertex="1" parent="1">
          <mxGeometry x="-560" y="-450" width="120" height="60" as="geometry" />
        </mxCell>
        <mxCell id="UGoLlDs5Vt5mTQ_6u8co-7" value="&lt;h2&gt;Performance&lt;/h2&gt;" style="rounded=0;whiteSpace=wrap;html=1;strokeWidth=7;" vertex="1" parent="1">
          <mxGeometry x="-610" y="-260" width="120" height="60" as="geometry" />
        </mxCell>
        <mxCell id="UGoLlDs5Vt5mTQ_6u8co-8" value="&lt;h2&gt;Log off&lt;/h2&gt;" style="rounded=0;whiteSpace=wrap;html=1;strokeWidth=7;" vertex="1" parent="1">
          <mxGeometry x="-600" y="-50" width="120" height="60" as="geometry" />
        </mxCell>
        <mxCell id="UGoLlDs5Vt5mTQ_6u8co-9" value="" style="rounded=0;whiteSpace=wrap;html=1;strokeWidth=2;opacity=0;" vertex="1" parent="1">
          <mxGeometry x="-500" y="20" width="140" height="40" as="geometry" />
        </mxCell>
        <mxCell id="UGoLlDs5Vt5mTQ_6u8co-10" value="" style="rounded=0;whiteSpace=wrap;html=1;strokeWidth=2;opacity=0;" vertex="1" parent="1">
          <mxGeometry x="-490" y="20" width="120" height="60" as="geometry" />
        </mxCell>
        <mxCell id="UGoLlDs5Vt5mTQ_6u8co-11" value="" style="rounded=0;whiteSpace=wrap;html=1;strokeWidth=2;opacity=0;" vertex="1" parent="1">
          <mxGeometry x="-500" y="10" width="120" height="60" as="geometry" />
        </mxCell>
        <mxCell id="UGoLlDs5Vt5mTQ_6u8co-12" value="" style="rounded=0;whiteSpace=wrap;html=1;strokeWidth=2;opacity=0;" vertex="1" parent="1">
          <mxGeometry x="-450" y="50" width="120" height="60" as="geometry" />
        </mxCell>
        <mxCell id="UGoLlDs5Vt5mTQ_6u8co-13" value="&lt;h4 style=&quot;font-size: 14px;&quot;&gt;Add or Remove Employee&lt;/h4&gt;" style="rounded=0;whiteSpace=wrap;html=1;strokeWidth=2;opacity=80;fontSize=14;" vertex="1" parent="1">
          <mxGeometry x="-330" y="-1320" width="250" height="60" as="geometry" />
        </mxCell>
        <mxCell id="UGoLlDs5Vt5mTQ_6u8co-14" value="&lt;h4 style=&quot;font-size: 13px;&quot;&gt;Employee Details and Search Employee&lt;/h4&gt;" style="rounded=0;whiteSpace=wrap;html=1;strokeWidth=2;opacity=80;fontSize=13;" vertex="1" parent="1">
          <mxGeometry x="-330" y="-1240" width="250" height="50" as="geometry" />
        </mxCell>
        <mxCell id="UGoLlDs5Vt5mTQ_6u8co-16" value="&lt;h4&gt;&lt;font face=&quot;Times New Roman&quot; style=&quot;font-size: 15px&quot;&gt;Update Employee&lt;/font&gt;&lt;/h4&gt;" style="rounded=0;whiteSpace=wrap;html=1;strokeWidth=2;opacity=80;" vertex="1" parent="1">
          <mxGeometry x="-330" y="-1160" width="250" height="40" as="geometry" />
        </mxCell>
        <mxCell id="UGoLlDs5Vt5mTQ_6u8co-18" value="&lt;h4&gt;Allowance&lt;/h4&gt;" style="rounded=0;whiteSpace=wrap;html=1;strokeWidth=2;fontSize=13;opacity=80;" vertex="1" parent="1">
          <mxGeometry x="-320" y="-1060" width="260" height="60" as="geometry" />
        </mxCell>
        <mxCell id="UGoLlDs5Vt5mTQ_6u8co-19" value="&lt;h4&gt;Advance or Due&lt;/h4&gt;" style="rounded=0;whiteSpace=wrap;html=1;strokeWidth=2;fontSize=13;opacity=80;" vertex="1" parent="1">
          <mxGeometry x="-320" y="-980" width="260" height="60" as="geometry" />
        </mxCell>
        <mxCell id="UGoLlDs5Vt5mTQ_6u8co-20" value="Loan" style="rounded=0;whiteSpace=wrap;html=1;strokeWidth=2;fontSize=13;opacity=80;" vertex="1" parent="1">
          <mxGeometry x="-320" y="-900" width="270" height="60" as="geometry" />
        </mxCell>
        <mxCell id="UGoLlDs5Vt5mTQ_6u8co-21" value="Bonus" style="rounded=0;whiteSpace=wrap;html=1;strokeWidth=2;fontSize=13;opacity=80;" vertex="1" parent="1">
          <mxGeometry x="-320" y="-810" width="270" height="50" as="geometry" />
        </mxCell>
        <mxCell id="UGoLlDs5Vt5mTQ_6u8co-22" value="Attendance (Enter and exit)" style="rounded=0;whiteSpace=wrap;html=1;strokeWidth=2;fontSize=13;opacity=80;" vertex="1" parent="1">
          <mxGeometry x="-250" y="-710" width="120" height="60" as="geometry" />
        </mxCell>
        <mxCell id="UGoLlDs5Vt5mTQ_6u8co-23" value="Events" style="rounded=0;whiteSpace=wrap;html=1;strokeWidth=2;fontSize=13;opacity=80;" vertex="1" parent="1">
          <mxGeometry x="-250" y="-630" width="120" height="60" as="geometry" />
        </mxCell>
        <mxCell id="UGoLlDs5Vt5mTQ_6u8co-24" value="Manage leave&amp;nbsp;" style="rounded=0;whiteSpace=wrap;html=1;strokeWidth=2;fontSize=13;opacity=80;" vertex="1" parent="1">
          <mxGeometry x="-280" y="-490" width="120" height="60" as="geometry" />
        </mxCell>
        <mxCell id="UGoLlDs5Vt5mTQ_6u8co-25" value="Training" style="rounded=0;whiteSpace=wrap;html=1;strokeWidth=2;fontSize=13;opacity=80;" vertex="1" parent="1">
          <mxGeometry x="-290" y="-400" width="120" height="60" as="geometry" />
        </mxCell>
        <mxCell id="UGoLlDs5Vt5mTQ_6u8co-26" value="Work History" style="rounded=0;whiteSpace=wrap;html=1;strokeWidth=2;fontSize=13;opacity=80;" vertex="1" parent="1">
          <mxGeometry x="-290" y="-290" width="120" height="60" as="geometry" />
        </mxCell>
        <mxCell id="UGoLlDs5Vt5mTQ_6u8co-27" value="Promotion" style="rounded=0;whiteSpace=wrap;html=1;strokeWidth=2;fontSize=13;opacity=80;" vertex="1" parent="1">
          <mxGeometry x="-280" y="-190" width="120" height="60" as="geometry" />
        </mxCell>
        <mxCell id="UGoLlDs5Vt5mTQ_6u8co-28" value="Employee&lt;br&gt;" style="shape=umlActor;verticalLabelPosition=bottom;verticalAlign=top;html=1;outlineConnect=0;strokeWidth=2;fontSize=13;opacity=80;" vertex="1" parent="1">
          <mxGeometry x="-890" y="440" width="30" height="60" as="geometry" />
        </mxCell>
        <mxCell id="UGoLlDs5Vt5mTQ_6u8co-32" value="&lt;h2&gt;Employee&lt;/h2&gt;" style="rounded=0;whiteSpace=wrap;html=1;strokeWidth=7;" vertex="1" parent="1">
          <mxGeometry x="-710" y="250" width="120" height="60" as="geometry" />
        </mxCell>
        <mxCell id="UGoLlDs5Vt5mTQ_6u8co-34" value="&lt;h2&gt;Salary&lt;/h2&gt;" style="rounded=0;whiteSpace=wrap;html=1;strokeWidth=7;" vertex="1" parent="1">
          <mxGeometry x="-710" y="390" width="120" height="60" as="geometry" />
        </mxCell>
        <mxCell id="UGoLlDs5Vt5mTQ_6u8co-36" value="&lt;h2&gt;Attendance&amp;nbsp;&lt;/h2&gt;" style="rounded=0;whiteSpace=wrap;html=1;strokeWidth=7;" vertex="1" parent="1">
          <mxGeometry x="-710" y="530" width="120" height="60" as="geometry" />
        </mxCell>
        <mxCell id="UGoLlDs5Vt5mTQ_6u8co-38" value="&lt;h2&gt;Leave&lt;/h2&gt;" style="rounded=0;whiteSpace=wrap;html=1;strokeWidth=7;" vertex="1" parent="1">
          <mxGeometry x="-710" y="670" width="120" height="60" as="geometry" />
        </mxCell>
      </root>
    </mxGraphModel>
  </diagram>
</mxfile>
